<svg width="262" height="166" viewBox="0 0 262 166" fill="none" xmlns="http://www.w3.org/2000/svg">
<g clip-path="url(#clip0_64_5634)">
<path d="M211.374 69.3181C211.374 69.3181 246.466 52.7354 258.149 81.0083C269.832 109.281 254.255 144.438 216.22 156.128C178.186 167.818 150.883 145.391 145.041 148.335C139.2 151.279 129.464 163.922 105.06 165.913C80.6553 167.905 76.8043 137.641 76.8043 137.641C76.8043 137.641 48.549 157.167 24.1447 147.382C-0.259628 137.597 -5.0626 117.118 4.71642 97.6342C14.4955 78.1507 39.8084 78.1074 39.8084 78.1074C39.8084 78.1074 25.1831 54.6838 41.7556 35.2002C58.328 15.7167 83.6842 34.2044 83.6842 34.2044C83.6842 34.2044 90.5209 1.99156 118.776 0.0432066C147.032 -1.90515 160.705 35.1569 160.705 35.1569C160.705 35.1569 181.172 14.6775 195.797 22.471C210.422 30.2644 215.312 56.6322 211.374 69.2748V69.3181Z" fill="white"/>
</g>
<defs>
<clipPath id="clip0_64_5634">
<rect width="262" height="166" fill="white"/>
</clipPath>
</defs>
</svg>
